#!OML:ASF F:\VICON\USERDATA\INSTALL\rory3\rory3.ASF
:FULLY-SPECIFIED
:DEGREES
241
root -6.90391 17.8234 6.35859 5.76179 -37.9144 -2.33995
lowerback 14.728 1.62856 4.35893
upperback 3.975 2.84978 3.24775
thorax -3.99036 1.34037 0.449325
lowerneck -12.8674 -3.4157 -13.2001
upperneck 40.0665 -3.09924 3.254
head 17.1213 -3.00766 3.22118
rclavicle 5.1684e-014 -1.98785e-014
rhumerus -17.8289 -3.25118 -73.6978
rradius 45.8964
rwrist -0.682026
rhand -14.8224 6.1672
rfingers 7.12502
rthumb 11.3361 -23.5064
lclavicle 5.1684e-014 -1.98785e-014
lhumerus -30.4428 -19.6426 96.7607
lradius 51.296
lwrist -2.2743
lhand -16.0322 27.1985
lfingers 7.12502
lthumb 10.1691 56.9327
rfemur -9.93313 -6.38956 25.7307
rtibia 31.5722
rfoot -19.2641 -4.99845
rtoes 2.60335
lfemur -23.7333 -4.38693 -12.6535
ltibia 5.01422
lfoot -3.32826 14.2301
ltoes -10.9235
242
root -6.94975 17.8128 6.43677 5.93729 -37.8013 -2.64529
lowerback 14.9592 1.55227 4.44288
upperback 3.96538 2.78191 3.3748
thorax -4.12923 1.30251 0.541031
lowerneck -12.7418 -3.4049 -13.2706
upperneck 40.0097 -3.05316 3.17911
head 17.055 -3.00805 3.20651
rclavicle 1.35174e-014 9.54166e-015
rhumerus -17.7002 -2.74219 -73.6134
rradius 46.2934
rwrist -0.582942
rhand -15.1517 5.69884
rfingers 7.12502
rthumb 11.0184 -23.992
lclavicle 1.35174e-014 9.54166e-015
lhumerus -30.5212 -19.7295 96.908
lradius 51.4719
lwrist -2.45296
lhand -15.2207 27.4194
lfingers 7.12502
lthumb 10.9519 57.1138
rfemur -9.77979 -6.65321 25.908
rtibia 31.9257
rfoot -19.2733 -4.89488
rtoes 1.79389
lfemur -23.8584 -4.35845 -12.5625
ltibia 4.91364
lfoot -2.40532 14.1202
ltoes -10.4969
243
root -6.99588 17.7994 6.51725 6.07459 -37.7966 -2.77875
lowerback 15.0548 1.53993 4.38103
upperback 4.01473 2.75968 3.40054
thorax -4.13353 1.29146 0.60483
lowerneck -12.7709 -3.39821 -13.0804
upperneck 39.9747 -3.03646 3.03008
head 17.0311 -2.99026 3.10681
rclavicle 1.59028e-015 3.18055e-015
rhumerus -17.2959 -2.769 -73.6103
rradius 46.364
rwrist -0.425852
rhand -14.9495 5.926
rfingers 7.12502
rthumb 11.2135 -23.7543
lclavicle 1.59028e-015 3.18055e-015
lhumerus -30.5129 -19.9148 96.9573
lradius 51.656
lwrist -2.70204
lhand -14.6283 27.2377
lfingers 7.12502
lthumb 11.5233 56.901
rfemur -9.76735 -6.90272 25.9353
rtibia 32.3493
rfoot -19.2536 -4.87172
rtoes 0.713432
lfemur -24.2728 -4.243 -12.647
ltibia 5.44036
lfoot -1.72966 13.9431
ltoes -10.6012
244
root -7.04117 17.7835 6.59508 6.16826 -37.7794 -2.86392
lowerback 15.1413 1.52951 4.28426
upperback 4.09942 2.7297 3.38437
thorax -4.09514 1.27777 0.646334
lowerneck -12.8416 -3.37921 -12.9076
upperneck 39.9838 -3.06929 3.07744
head 17.0496 -2.9713 3.09236
rclavicle 4.05521e-014 1.27222e-014
rhumerus -16.8677 -2.71044 -73.7134
rradius 46.4022
rwrist 0.00818338
rhand -15.1613 6.02547
rfingers 7.12502
rthumb 11.0092 -23.6658
lclavicle 4.05521e-014 1.27222e-014
lhumerus -30.4394 -20.2641 96.9418
lradius 51.8397
lwrist -2.93612
lhand -14.6575 26.8779
lfingers 7.12502
lthumb 11.4951 56.5427
rfemur -9.81696 -7.21785 25.9185
rtibia 32.8798
rfoot -19.3079 -4.73062
rtoes 0.104394
lfemur -24.8462 -4.11392 -12.6995
ltibia 6.30493
lfoot -1.16046 13.6812
ltoes -11.27
245
root -7.08334 17.7674 6.68013 6.18548 -37.81 -3.07168
lowerback 15.3064 1.46026 4.31887
upperback 4.24706 2.64347 3.41947
thorax -4.02925 1.23527 0.677369
lowerneck -12.8679 -3.32386 -12.9468
upperneck 40.0076 -3.01957 3.19552
head 17.0652 -2.94327 3.16275
rclavicle -6.36111e-014 -4.77083e-015
rhumerus -16.4605 -2.35625 -73.8047
rradius 46.5063
rwrist 0.294961
rhand -15.4994 5.82187
rfingers 7.12502
rthumb 10.6831 -23.8865
lclavicle -6.36111e-014 -4.77083e-015
lhumerus -30.2946 -20.4933 96.9474
lradius 51.9369
lwrist -3.25926
lhand -14.7863 26.8884
lfingers 7.12502
lthumb 11.3709 56.5601
rfemur -9.73417 -7.49425 25.9341
rtibia 33.5537
rfoot -19.4023 -4.5266
rtoes -0.961953
lfemur -25.1354 -3.96327 -12.7083
ltibia 7.13568
lfoot -0.660636 13.1491
ltoes -12.0555
246
root -7.12587 17.7507 6.77119 6.09901 -38.0247 -3.24337
lowerback 15.5306 1.45432 4.28539
upperback 4.45408 2.62867 3.45388
thorax -3.93402 1.22828 0.732412
lowerneck -12.9129 -3.31562 -13.0862
upperneck 39.9483 -3.01113 3.33351
head 17.0495 -2.93997 3.25049
rclavicle -2.34566e-014 -1.98785e-014
rhumerus -15.9861 -2.09384 -73.8164
rradius 46.5625
rwrist 0.179905
rhand -15.4595 5.86742
rfingers 7.12502
rthumb 10.7215 -23.839
lclavicle -2.34566e-014 -1.98785e-014
lhumerus -30.0804 -20.703 96.9903
lradius 51.9326
lwrist -3.69044
lhand -14.9266 26.9207
lfingers 7.12502
lthumb 11.2356 56.5998
rfemur -9.59711 -7.67603 25.8646
rtibia 34.3567
rfoot -19.3911 -4.26365
rtoes -1.6205
lfemur -25.2218 -3.6533 -12.7923
ltibia 7.93643
lfoot -0.418147 12.3203
ltoes -12.6954
247
root -7.16943 17.7332 6.85987 5.96088 -38.3319 -3.20427
lowerback 15.7569 1.56197 4.02222
upperback 4.60056 2.7309 3.43866
thorax -3.91118 1.27885 0.841402
lowerneck -12.9835 -3.37571 -13.2136
upperneck 40.0093 -3.10639 3.46271
head 17.1204 -2.98355 3.31623
rclavicle -2.50469e-014 -2.06736e-014
rhumerus -15.6503 -2.01444 -73.7904
rradius 46.6356
rwrist 0.0882834
rhand -15.3858 6.37998
rfingers 7.12502
rthumb 10.7926 -23.3227
lclavicle -2.50469e-014 -2.06736e-014
lhumerus -29.9277 -21.2296 97.1136
lradius 51.8916
lwrist -3.8639
lhand -15.324 26.7964
lfingers 7.12502
lthumb 10.8523 56.496
rfemur -9.63891 -7.81146 25.6265
rtibia 35.3041
rfoot -19.3686 -3.93082
rtoes -1.12696
lfemur -25.315 -3.26457 -13.0578
ltibia 8.70821
lfoot -0.431351 11.1825
ltoes -13.8806
